<?xml version="1.0" encoding="utf-8"?>
<!-- Generator: Adobe Illustrator 23.0.0, SVG Export Plug-In . SVG Version: 6.00 Build 0)  -->
<svg version="1.1" id="Capa_1" xmlns="http://www.w3.org/2000/svg" xmlns:xlink="http://www.w3.org/1999/xlink" x="0px" y="0px"
	 viewBox="0 0 264.47 595.28" style="enable-background:new 0 0 264.47 595.28;" xml:space="preserve">
<style type="text/css">
	.st0{fill:#FFFFFF;}
</style>
<g>
	<path class="st0" d="M16.38,399.29c0-83.64,0-167.29,0-250.94c77.39,0,154.78,0,232.17,0c0,83.64,0,167.27,0,250.94
		C171.16,399.29,93.76,399.29,16.38,399.29z M34.51,218.87c-0.61,2.27-1.16,4.46-1.78,6.62c-0.31,1.1-0.6,2.25-1.14,3.25
		c-7.69,14.3-12.18,29.54-13.44,45.72c-0.8,10.3-0.26,20.54,1.75,30.67c4.76,24,16.04,44.45,33.72,61.36
		c0.49,0.47,0.78,0.93,0.8,1.63c0.04,1.3,0.17,2.61,0.26,3.91c0.45,6.54,0.92,13.08,1.33,19.63c0.11,1.68,0.93,2.9,2.2,3.86
		c1.57,1.19,3.39,1.56,5.32,1.57c16.11,0.04,32.22,0.09,48.33,0.14c2.96,0.01,5.92,0,8.88,0.08c4.99,0.14,9.97,0.46,14.95,0.48
		c3.48,0.02,6.95-0.49,10.43-0.5c15.44-0.06,30.89-0.01,46.33-0.03c6.01-0.01,12.02-0.07,18.02-0.17c2.89-0.05,5.5-2.72,5.65-5.56
		c0.16-3.01,0.35-6.03,0.52-9.04c0.43-7.39,0.84-14.78,1.31-22.16c0.03-0.55,0.32-1.18,0.69-1.6c4.74-5.48,8.98-11.31,12.63-17.58
		c9.06-15.55,14.19-32.3,15.39-50.27c0.59-8.93,0.15-17.81-1.32-26.63c-1.88-11.23-5.37-21.94-10.45-32.13
		c-0.15-0.3-0.25-0.65-0.27-0.99c-0.25-2.89-0.47-5.78-0.74-8.67c-0.11-1.19-0.33-2.37-0.51-3.63c-1.6,0.91-3.07,1.75-4.55,2.6
		c-0.16-0.23-0.25-0.34-0.32-0.46c-6.06-9.31-13.29-17.58-21.75-24.77c-0.63-0.53-0.52-0.95-0.29-1.56
		c3.16-8.27,4.68-16.79,3.77-25.66c-0.68-6.6-2.64-12.81-5.52-18.75c-0.09-0.19-0.48-0.39-0.7-0.36c-1.06,0.15-2.11,0.37-3.16,0.58
		c-6.3,1.25-12.47,2.93-18.28,5.75c-6.24,3.03-11.72,7.16-17.02,11.56c-0.6,0.5-1.1,0.53-1.8,0.37c-5.87-1.35-11.73-2.81-17.64-3.97
		c-6.58-1.29-13.24-1.61-19.94-1.11c-7.32,0.54-14.46,2-21.48,4.12c-0.49,0.15-0.83,0.11-1.24-0.25c-4.47-4.01-9.38-7.39-14.69-10.2
		c-7.62-4.02-15.65-6.53-24.33-6.76c-0.92-0.02-1.47,0.21-1.96,1.01c-6.81,11.22-8.99,23.25-6.27,36.1c0.6,2.85,1.63,5.6,2.49,8.51
		c-8.3,6.96-15.57,15.08-21.7,24.24C36.21,219.5,35.48,219.23,34.51,218.87z"/>
	<path d="M34.51,218.87c0.97,0.36,1.7,0.63,2.49,0.93c6.13-9.16,13.4-17.28,21.7-24.24c-0.86-2.9-1.89-5.66-2.49-8.51
		c-2.72-12.85-0.54-24.88,6.27-36.1c0.49-0.81,1.04-1.04,1.96-1.01c8.68,0.23,16.71,2.74,24.33,6.76c5.31,2.8,10.22,6.19,14.69,10.2
		c0.41,0.36,0.75,0.4,1.24,0.25c7.02-2.11,14.16-3.58,21.48-4.12c6.69-0.49,13.36-0.18,19.94,1.11c5.91,1.16,11.77,2.62,17.64,3.97
		c0.7,0.16,1.19,0.13,1.8-0.37c5.3-4.4,10.79-8.53,17.02-11.56c5.81-2.82,11.98-4.5,18.28-5.75c1.05-0.21,2.1-0.43,3.16-0.58
		c0.22-0.03,0.61,0.16,0.7,0.36c2.89,5.94,4.85,12.15,5.52,18.75c0.91,8.87-0.61,17.39-3.77,25.66c-0.23,0.61-0.34,1.03,0.29,1.56
		c8.46,7.19,15.7,15.47,21.75,24.77c0.08,0.12,0.16,0.23,0.32,0.46c1.48-0.85,2.95-1.69,4.55-2.6c0.18,1.26,0.4,2.44,0.51,3.63
		c0.27,2.89,0.48,5.78,0.74,8.67c0.03,0.34,0.12,0.69,0.27,0.99c5.08,10.19,8.58,20.9,10.45,32.13c1.47,8.82,1.92,17.7,1.32,26.63
		c-1.2,17.96-6.33,34.71-15.39,50.27c-3.65,6.26-7.89,12.1-12.63,17.58c-0.37,0.42-0.65,1.05-0.69,1.6
		c-0.47,7.39-0.88,14.77-1.31,22.16c-0.17,3.01-0.37,6.03-0.52,9.04c-0.15,2.84-2.76,5.51-5.65,5.56
		c-6.01,0.1-12.02,0.16-18.02,0.17c-15.44,0.02-30.89-0.03-46.33,0.03c-3.48,0.01-6.95,0.52-10.43,0.5
		c-4.98-0.02-9.97-0.35-14.95-0.48c-2.96-0.08-5.92-0.07-8.88-0.08c-16.11-0.05-32.22-0.1-48.33-0.14
		c-1.93-0.01-3.76-0.38-5.32-1.57c-1.27-0.96-2.09-2.18-2.2-3.86c-0.42-6.54-0.88-13.09-1.33-19.63c-0.09-1.3-0.22-2.6-0.26-3.91
		c-0.02-0.7-0.31-1.15-0.8-1.63c-17.67-16.91-28.96-37.36-33.72-61.36c-2.01-10.13-2.55-20.38-1.75-30.67
		c1.26-16.18,5.75-31.42,13.44-45.72c0.54-1,0.82-2.14,1.14-3.25C33.35,223.32,33.9,221.14,34.51,218.87z M181.62,207.48
		c0.95,0.22,1.7,0.4,2.46,0.57c3.68,0.82,7.34,1.65,10.77,3.29c1.28,0.61,2.25,1.36,2.43,2.87c0.07,0.54,0.3,1.06,0.45,1.58
		c2.18,7.42,6.74,12.51,14.32,14.65c3.41,0.96,6.89,1.27,10.42,1.17c1.91-0.05,3.81-0.18,5.85-0.28c-0.08,4.14-0.42,8.18-2.74,11.81
		c1.97-1.18,3.9-2.33,4.82-4.6c1.27-3.13,1.74-6.37,1.34-9.71c-0.17-1.41-0.63-2.78-0.95-4.14c-0.28,0.04-0.34,0.05-0.4,0.06
		c-4,1.11-8,2.12-12.21,2.04c-6.04-0.11-10.85-2.58-14.45-7.41c-2.43-3.25-3.92-6.95-5.04-10.82c-0.17-0.57-0.33-1.14-0.54-1.85
		c-3.34,1.04-6.66,1.54-10.17,1.14c0.42-0.73,0.84-1.45,1.24-2.18c1.02-1.84,2.3-3.55,2.32-5.82c0.01-1.04,0.38-2.08,0.58-3.12
		c-0.89-0.18-1.67-0.33-2.44-0.48c1.83-1.04,3.31-2.23,3.67-4.48c-2.71-0.37-4.56,1.64-6.92,2.25c1.03-2.97,0.79-7.26-0.43-8.77
		c-0.42,1-0.8,2.03-1.29,3c-0.48,0.97-1.06,1.88-1.59,2.82c-0.18-1.29-0.12-2.5-0.2-3.7c-0.08-1.24-0.35-2.45-1.41-3.44
		c-2.46,3.68-4.79,7.33-6.24,11.72c-0.58-0.78-1.06-1.44-1.56-2.12c-0.02,0.14-0.04,0.27-0.07,0.5c-0.28-0.33-0.51-0.55-0.69-0.81
		c-1.14-1.68-2.28-3.36-3.37-5.07c-0.29-0.45-0.54-0.64-1.11-0.49c-2.96,0.78-5.99,1.04-9.05,1.09c-0.3,0-0.61-0.03-0.9-0.05
		c-0.03-0.19-0.06-0.28-0.05-0.37c0.44-4.05-0.82-7.62-3.09-10.89c-0.23-0.33-0.7-0.71-1.05-0.7c-2.37,0.08-4.76,0.11-7.11,0.43
		c-4.39,0.6-8.57,2.05-12.71,3.56c-0.58,0.21-1.08,0.21-1.66-0.05c-6.38-2.79-13.11-3.79-20.02-3.97c-0.57-0.01-0.94,0.18-1.15,0.7
		c-0.55,1.4-1.26,2.77-1.61,4.21c-0.53,2.13-0.83,4.32-1.17,6.5c-0.11,0.73-0.41,1.01-1.13,0.96c-2.6-0.17-5.21-0.31-7.81-0.5
		c-0.56-0.04-0.96-0.03-1.34,0.5c-0.46,0.62-1.03,1.19-1.66,1.64c-0.64,0.47-1.04,1.03-1.33,1.75c-0.38,0.91-0.86,1.79-1.3,2.67
		c-0.11,0-0.23,0-0.34,0c-0.53-0.85-1.1-1.67-1.59-2.55c-1.13-2.02-2.16-4.11-3.35-6.09c-0.58-0.96-1.44-1.76-2.24-2.71
		c-1.93,2.22-1.39,4.74-1.51,7.11c-0.11,0.02-0.21,0.05-0.32,0.07c-0.94-1.94-1.88-3.88-2.84-5.84c-1,2.86-1.53,5.77-0.29,8.87
		c-2.41-0.69-4.25-2.63-6.9-2.26c0.13,1.11,0.56,2,1.31,2.67c0.71,0.64,1.53,1.15,2.43,1.81c-0.93,0.17-1.71,0.32-2.44,0.45
		c0.1,4.22,2.65,7.53,4.12,11.25c-1.39,0.29-6.59-0.33-9.6-1.13c-0.09,0.29-0.18,0.59-0.27,0.88c-1.12,3.77-2.53,7.41-4.83,10.64
		c-3.97,5.57-9.35,8.41-16.21,8.42c-3.34,0-6.56-0.67-9.73-1.66c-0.71-0.22-1.42-0.46-2.2-0.71c-0.14,0.44-0.28,0.78-0.36,1.14
		c-0.7,3.05-0.83,6.15-0.55,9.26c0.19,2.14,0.68,4.24,1.95,6.06c1.16,1.66,2.75,2.55,4.9,2.68c-0.36-0.6-0.66-1.09-0.95-1.58
		c-1.54-2.59-2.5-5.36-2.52-8.39c-0.01-2.13-0.44-1.97,1.99-1.89c4.64,0.16,9.28,0.24,13.86-0.8c5.6-1.28,10.13-4.07,13-9.21
		c1.36-2.43,2.16-5.06,2.61-7.79c0.11-0.65,0.41-0.96,0.92-1.23c3.22-1.76,6.61-3.08,10.14-4.06c1.3-0.36,2.62-0.62,4.1-0.96
		c-1.61-2.51-3.16-4.93-4.72-7.37c13.62-1.78,24.91,3.04,34.68,12.63c0.29-3.83-0.98-7.07-2.07-10.51c0.64,0.16,1.12,0.25,1.57,0.4
		c4.86,1.66,9.02,4.45,12.76,7.92c0.53,0.49,0.81,0.97,0.62,1.74c-0.16,0.67-0.18,1.38-0.2,2.07c-0.19,4.78-0.38,9.56-0.56,14.34
		c0,0.07-0.04,0.13-0.09,0.25c-0.07-0.13-0.12-0.2-0.14-0.28c-1.24-4.68-2.06-9.4-1.36-14.27c0.04-0.29-0.03-0.73-0.22-0.9
		c-1.5-1.27-3.02-2.53-4.6-3.71c-0.6-0.45-1.36-0.7-2.28-1.15c0,3.77,0,7.31,0,11.08c-0.39-0.35-0.58-0.52-0.77-0.69
		c-2.42-2.04-4.75-4.19-7.28-6.08c-5.13-3.83-10.71-6.83-17.03-8.21c-1.53-0.34-3.1-0.49-4.82-0.76c0.61,1.6,1.09,2.96,1.67,4.29
		c0.17,0.39,0.57,0.78,0.96,0.95c1.84,0.77,3.74,1.41,5.58,2.19c2.7,1.14,5.32,2.46,7.63,4.3c0.52,0.41,0.97,0.89,1.46,1.33
		c-0.42,0.04-0.71-0.07-0.99-0.2c-2.13-0.91-4.22-1.93-6.4-2.72c-8.16-3-16.27-3.09-24.29,0.59c-0.49,0.23-0.77,0.48-0.87,1.05
		c-0.94,5.32-3.39,9.84-7.41,13.45c-4.74,4.26-10.48,6.18-16.68,6.93c-2.15,0.26-4.33,0.33-6.57,0.5c0.83,3.22,1.57,6.5,4.43,9
		c-2.29,0-4.38,0-6.54,0c2.03,7.54,5.53,14.12,10.89,19.7c-0.08,0.09-0.17,0.19-0.25,0.28c-3.9-2.3-7.79-4.61-11.89-7.03
		c0.57,1.16,1.01,2.19,1.56,3.15c2.94,5.15,6.64,9.72,10.77,13.95c6.26,6.41,13.31,11.73,21.57,15.33c0.46,0.2,1.06,0.23,1.56,0.13
		c3.09-0.63,6.15-1.39,9.25-1.95c1.61-0.29,3.28-0.28,4.93-0.4c-4.91-1.31-9.89-0.8-15.09-0.49c1.38-1.09,2.64-1.9,3.67-2.93
		c1.03-1.02,1.83-2.26,2.75-3.42c-1.06-0.84-1.92-1.57-2.84-2.22c-6.42-4.55-12.42-9.56-17.42-15.67c-3.26-3.98-5.96-8.29-7.5-13.24
		c-0.82-2.64-1.26-5.34-1.1-8.24c0.89,0,1.72,0.02,2.55,0c6.28-0.21,11.63-2.45,15.8-7.26c2.9-3.35,4.76-7.25,6.12-11.42
		c0.2-0.6,0.47-0.8,1.08-0.83c6.12-0.34,12.11,0.39,17.97,2.14c4.94,1.48,9.42,3.78,12.78,7.85c0.02,0.03,0.1,0,0.19,0
		c0.23-2.88-0.43-5.9,1.29-8.74c0.24,0.45,0.38,0.75,0.56,1.04c1.96,3.25,3.8,6.59,5.94,9.71c1.21,1.77,2.9,3.22,4.44,4.74
		c0.51,0.5,1.24,0.78,1.91,1.19c0.33-0.56,0.57-0.99,0.82-1.41c1.08-1.85,2.17-3.7,3.26-5.55c0.86-1.46,2.29-2.29,3.68-3.52
		c0,0.63-0.03,1.02,0,1.41c0.23,2.5,0.38,5.02,0.74,7.51c0.22,1.48,0.84,2.88,2.16,4.12c3.08-3.5,2.99-7.76,3.21-11.96
		c1.42,0.43,2.54,1.02,3.24,2.27c0.87,1.54,1.8,3.04,2.7,4.57c0.48,0.82,0.95,1.64,1.47,2.54c3.39-1.66,5.55-4.46,7.48-7.42
		c1.92-2.95,3.64-6.03,5.47-9.09c1.6,2.69,1,5.74,1.24,8.8c2.33-2.91,5.15-4.92,8.38-6.34c7.15-3.16,14.67-4.19,22.43-3.87
		c0.69,0.03,0.99,0.26,1.2,0.93c1.08,3.39,2.55,6.6,4.63,9.5c3.91,5.44,9.16,8.5,15.87,8.99c1.29,0.1,2.59,0.13,3.91,0.19
		c0.03,0.18,0.06,0.32,0.06,0.46c0,0.41,0,0.81-0.02,1.22c-0.14,3.77-1.15,7.32-2.79,10.7c-3.45,7.11-8.61,12.86-14.6,17.86
		c-3.58,2.99-7.47,5.61-11.22,8.39c-0.25,0.18-0.48,0.39-0.71,0.57c1.42,2.77,3.61,4.68,6.13,6.32c-5.03-0.2-9.99-0.7-14.88,0.58
		c1.09,0.12,2.18,0.16,3.27,0.24c3.72,0.27,7.31,1.18,10.89,2.15c0.45,0.12,1.04,0.08,1.48-0.1c6.97-3.02,13.11-7.31,18.65-12.46
		c5.53-5.15,10.41-10.84,14.1-17.48c0.41-0.74,0.73-1.54,1.17-2.48c-4.15,2.45-8.09,4.77-12.04,7.1c-0.06-0.09-0.11-0.17-0.17-0.26
		c0.17-0.19,0.34-0.37,0.5-0.57c1.34-1.64,2.72-3.25,3.99-4.94c3.21-4.27,4.75-9.38,6.94-14.16c0.01-0.02-0.02-0.05-0.11-0.21
		c-2,0-4.07,0-6.24,0c2.79-2.47,3.55-5.7,4.39-9.06c-0.54,0-0.91,0-1.28,0c-3.85-0.05-7.65-0.47-11.34-1.58
		c-9.7-2.91-16.01-9.05-18.08-19.15c-0.11-0.56-0.34-0.83-0.83-1.06c-6.61-3.04-13.44-3.55-20.47-1.8
		c-3.6,0.89-6.94,2.41-10.29,3.94c-0.28,0.13-0.58,0.23-0.87,0.34c-0.06-0.11-0.12-0.22-0.18-0.32c1.44-1.01,2.82-2.11,4.32-3.02
		c3.29-1.98,6.85-3.38,10.48-4.64c0.26-0.09,0.64-0.2,0.72-0.4c0.64-1.53,1.22-3.09,1.9-4.83c-12.16,1.19-21.27,7.71-29.88,15.68
		c0-3.75,0-7.28,0-11.02c-0.84,0.4-1.54,0.62-2.11,1.02c-1.39,0.99-2.71,2.09-4.07,3.12c-0.78,0.58-1.05,1.2-0.88,2.26
		c0.58,3.72,0,7.4-0.77,11.05c-0.31,1.45-0.71,2.89-1.08,4.33c-0.21-0.46-0.22-0.88-0.2-1.3c0.09-2.99,0.34-5.98,0.25-8.96
		c-0.07-2.27-0.5-4.53-0.88-6.78c-0.09-0.52-0.12-0.85,0.25-1.23c3.99-4.16,8.55-7.56,13.63-10.28c0.29-0.15,0.62-0.23,1.11-0.4
		c-0.12,0.77-0.17,1.37-0.32,1.95c-0.5,1.87-1.09,3.73-1.54,5.61c-0.27,1.12-0.48,2.29-0.04,3.57c9.99-9.05,21.22-14.42,35.16-12.89
		C185.15,202.45,183.44,204.89,181.62,207.48z M154.85,283.43c-0.09-0.4-0.13-0.59-0.17-0.79c-0.58-2.6-1.01-5.24-1.79-7.78
		c-1.47-4.79-3.9-9.03-7.74-12.38c-1.39-1.22-2.7-2.53-4.05-3.8c-0.11-0.1-0.19-0.22-0.3-0.32c-0.62-0.57-1.17-0.58-1.74,0.03
		c-1.36,1.47-2.71,2.95-4.04,4.45c-0.65,0.73-0.72,0.76-1.37-0.01c-1.2-1.41-2.39-2.84-3.59-4.26c-0.57-0.67-1.13-0.77-1.78-0.18
		c-2.34,2.16-4.82,4.2-6.94,6.57c-3.65,4.08-5.46,9.1-6.57,14.39c-0.27,1.29-0.48,2.6-0.74,4.07c-1.57-1.96-2.36-4.14-3.38-6.39
		c-0.26,0.81-0.48,1.46-0.66,2.11c-0.75,2.67-1.17,5.38-0.9,8.17c0.05,0.56,0.23,0.81,0.86,0.93c2.64,0.51,5.27,1.1,7.9,1.69
		c0.36,0.08,0.7,0.27,1.05,0.41c-0.5,0.28-0.98,0.42-1.45,0.44c-2.26,0.13-4.52,0.25-6.78,0.32c-0.77,0.02-1.42,0.13-1.6,0.98
		c-0.12,0.56,0.52,0.97,1.57,0.97c2.78,0,5.57-0.02,8.35-0.11c0.8-0.02,1.38,0.07,1.57,0.85c3.68,0,7.3,0,11.07,0
		c-0.89-2.29-2.21-3.94-4.48-4.67c-0.71-0.23-1.46-0.34-2.2-0.51c-1.56-0.36-2.07-0.97-2.22-2.57c-0.28-3.16,2.91-6.91,6.36-7.46
		c2.9-0.46,5.82-0.66,8.75-0.35c2.87,0.31,5.29,1.48,7.07,3.8c1.14,1.48,1.55,3.15,1.03,5c-0.15,0.51-0.42,0.79-1,0.91
		c-1.15,0.25-2.32,0.55-3.4,1.01c-1.77,0.74-3.14,1.96-3.78,3.86c-0.09,0.28-0.11,0.58-0.16,0.87c0.19,0.06,0.27,0.1,0.35,0.1
		c3.31,0.04,6.61,0.08,9.92,0.1c0.17,0,0.44-0.14,0.51-0.29c0.28-0.63,0.77-0.66,1.36-0.64c2.78,0.06,5.57,0.09,8.35,0.11
		c0.37,0,0.77-0.04,1.11-0.17c0.67-0.25,0.81-0.9,0.28-1.36c-0.27-0.24-0.71-0.37-1.08-0.39c-2.29-0.14-4.58-0.22-6.87-0.35
		c-0.53-0.03-1.05-0.16-1.58-0.24c0-0.08,0-0.15,0-0.23c0.37-0.14,0.73-0.32,1.12-0.4c2.66-0.58,5.32-1.16,7.99-1.7
		c0.45-0.09,0.62-0.25,0.68-0.7c0.27-2.07,0.06-4.11-0.34-6.14c-0.14-0.71-0.3-1.42-0.5-2.12c-0.19-0.69-0.43-1.37-0.7-2.21
		C157.21,279.34,156.44,281.5,154.85,283.43z M67.5,164.05c0.51,0.13,0.78,0.19,1.05,0.27c3.77,1.14,6.95,3.27,9.87,5.85
		c4.83,4.27,8.85,9.26,12.71,14.39c0.23,0.31,0.47,0.62,0.7,0.93c0.09-0.02,0.19-0.05,0.28-0.07c0-1.18,0.04-2.36-0.01-3.54
		c-0.05-1.16-0.2-2.32-0.31-3.43c1.22,1.37,1.96,3.44,4.44,3.55c2.12,0.09,4.05-0.03,5.51-1.88c-2.68-3.81-5.69-7.3-9.04-10.48
		c-6.04-5.72-12.8-10.25-20.84-12.66c-1.88-0.56-3.82-0.94-5.74-1.4c-0.03,0.08-0.05,0.15-0.08,0.23c3.88,2.88,7.62,5.92,11.08,9.31
		c-4.06-3.05-8.42-5.53-13.27-7.36c-0.53,1.95-1.04,3.84-1.55,5.73c-1.93,7.13-2.21,14.28-0.4,21.48c1.58,6.29,4.27,12.1,7.34,17.78
		c0.67,1.24,1.47,1.9,2.84,1.95c0.92,0.04,1.85,0.13,2.96,0.2c-0.27-0.64-0.41-1.02-0.58-1.38c-0.75-1.53-1.54-3.05-2.27-4.6
		c-4.13-8.81-6.79-17.94-5.83-27.8C66.57,168.79,67.1,166.47,67.5,164.05z M199.86,164.2c0.89,2.83,1.34,5.66,1.5,8.52
		c0.29,5.44-0.48,10.75-1.99,15.97c-1.5,5.18-3.74,10.03-6.18,14.81c-0.22,0.42-0.38,0.87-0.58,1.31c0.05,0.09,0.1,0.18,0.16,0.27
		c1.45-0.19,2.91-0.37,4.35-0.6c0.2-0.03,0.41-0.31,0.53-0.52c3.13-5.47,5.84-11.13,7.56-17.22c1.44-5.1,2.02-10.29,1.47-15.57
		c-0.46-4.4-1.66-8.63-2.88-12.86c-0.04-0.12-0.13-0.23-0.21-0.38c-4.73,1.8-9.04,4.24-13,7.3c-0.06-0.09-0.13-0.17-0.19-0.26
		c3.72-3.08,7.44-6.16,11.31-9.37c-15.75,2.83-26.67,12.31-35.78,24.45c1.03,1.35,2.11,1.83,3.93,2.02c3,0.33,4.79-1.31,6.17-3.75
		c-0.95,2.45-0.2,4.9-0.41,7.41c1.22-1.59,2.34-3.1,3.51-4.57c3.45-4.35,7.08-8.53,11.41-12.05
		C193.29,166.87,196.3,165.14,199.86,164.2z M134.91,358.02c0.7-0.3,1.32-0.57,1.94-0.83c0.9-0.38,1.86-0.67,2.7-1.16
		c4.34-2.54,6.33-6.58,7.12-11.36c0.26-1.58,0.19-3.21,0.86-4.74c0.26-0.6,0.2-1.44,0.04-2.12c-0.53-2.34-2.21-3.76-4.22-4.8
		c-3.72-1.91-7.65-2.11-11.66-1.15c-2.61,0.62-4.98,1.73-6.72,3.88c-1.41,1.74-1.54,3.62-0.49,5.59c0.17,0.31,0.21,0.7,0.26,1.06
		c0.24,1.89,0.27,3.83,0.71,5.67c1,4.22,3.31,7.43,7.61,8.85C133.83,357.17,134.73,357.22,134.91,358.02z M150.42,256.17
		c10.58,4.38,19.15-0.96,22.27-9.15c-3.42,0.61-6.69,1.2-10.11,1.82c1.56,1.77,1.97,3.59,0.71,5.5c-0.92,1.4-2.33,2.05-3.98,1.75
		c-2.35-0.43-3.44-2.02-3.52-4.39c-0.08-0.04-0.15-0.08-0.23-0.11C153.87,253.09,152.18,254.6,150.42,256.17z M95.63,247.01
		c3.9,9.62,13.31,13.11,22.1,9.19c-1.24-1.63-3.96-3.98-5.16-4.45c-0.02,2.04-0.91,3.53-2.87,4.19c-1.67,0.56-3.2,0.12-4.32-1.23
		c-1.62-1.97-1.23-3.94,0.38-5.88C102.36,248.22,99.1,247.63,95.63,247.01z M137.58,280.36c-1.11,0.07-2.22,0.17-2.68,1.31
		c-0.47,1.17,0.2,2.09,1.04,2.82c1.46,1.27,3.15,1.92,5.12,1.67c0.84-0.1,1.59-0.4,1.93-1.26c0.35-0.9-0.05-1.65-0.62-2.31
		C141.11,281.13,139.44,280.5,137.58,280.36z M84.77,293.62c0.01,0.05,0.01,0.11,0.02,0.16c0.22,0.01,0.44,0.04,0.65,0.04
		c6.12,0,12.25,0.01,18.37-0.01c0.9,0,1.79-0.09,2.69-0.16c0.48-0.04,1.05-0.17,0.89-0.77c-0.09-0.32-0.59-0.68-0.96-0.74
		c-0.91-0.16-1.84-0.19-2.77-0.22c-4.36-0.14-8.7,0.11-13.01,0.72C88.68,292.9,86.73,293.28,84.77,293.62z M183.67,293.74
		c-0.41-0.12-0.62-0.2-0.84-0.24c-5.25-0.96-10.54-1.58-15.9-1.47c-1.51,0.03-3.01,0.14-4.51,0.23c-0.5,0.03-0.94,0.2-0.91,0.81
		c0.03,0.57,0.44,0.69,0.92,0.68c0.09,0,0.17,0.01,0.26,0.01c6.82,0.02,13.63,0.04,20.45,0.05
		C183.25,293.81,183.35,293.78,183.67,293.74z M160.44,254.6c0.55-0.04,0.91-0.4,0.97-1.03c0.06-0.6-0.47-1.11-1.08-1.09
		c-0.66,0.02-1,0.4-1.06,1.02C159.2,254.11,159.73,254.61,160.44,254.6z M110.28,253.63c-0.01-0.7-0.44-1.14-1.03-1.15
		c-0.62-0.01-1.1,0.46-1.09,1.08c0.01,0.61,0.51,1.08,1.13,1.04C109.94,254.55,110.25,254.16,110.28,253.63z M136.42,330.62
		c0.55-1.2,1.1-2.41,1.66-3.62C137.23,326.76,136.11,329.2,136.42,330.62z"/>
	<path class="st0" d="M181.62,207.48c1.82-2.59,3.53-5.02,5.34-7.6c-13.94-1.53-25.16,3.84-35.16,12.89
		c-0.44-1.28-0.23-2.45,0.04-3.57c0.45-1.88,1.04-3.74,1.54-5.61c0.15-0.58,0.2-1.18,0.32-1.95c-0.49,0.18-0.82,0.25-1.11,0.4
		c-5.08,2.72-9.64,6.12-13.63,10.28c-0.36,0.38-0.33,0.71-0.25,1.23c0.38,2.25,0.81,4.51,0.88,6.78c0.09,2.98-0.15,5.97-0.25,8.96
		c-0.01,0.42,0,0.84,0.2,1.3c0.36-1.44,0.77-2.88,1.08-4.33c0.77-3.65,1.36-7.32,0.77-11.05c-0.17-1.06,0.11-1.68,0.88-2.26
		c1.36-1.03,2.68-2.12,4.07-3.12c0.57-0.41,1.27-0.63,2.11-1.02c0,3.74,0,7.27,0,11.02c8.61-7.96,17.72-14.48,29.88-15.68
		c-0.68,1.75-1.26,3.3-1.9,4.83c-0.08,0.2-0.46,0.31-0.72,0.4c-3.62,1.25-7.18,2.66-10.48,4.64c-1.5,0.9-2.88,2-4.32,3.02
		c0.06,0.11,0.12,0.22,0.18,0.32c0.29-0.11,0.59-0.21,0.87-0.34c3.35-1.53,6.7-3.05,10.29-3.94c7.03-1.75,13.86-1.24,20.47,1.8
		c0.49,0.23,0.72,0.5,0.83,1.06c2.07,10.11,8.38,16.25,18.08,19.15c3.69,1.11,7.49,1.53,11.34,1.58c0.37,0,0.75,0,1.28,0
		c-0.84,3.35-1.6,6.58-4.39,9.06c2.17,0,4.24,0,6.24,0c0.09,0.16,0.12,0.2,0.11,0.21c-2.19,4.78-3.73,9.89-6.94,14.16
		c-1.27,1.69-2.65,3.3-3.99,4.94c-0.16,0.19-0.33,0.38-0.5,0.57c0.06,0.09,0.11,0.17,0.17,0.26c3.94-2.32,7.89-4.65,12.04-7.1
		c-0.44,0.95-0.76,1.74-1.17,2.48c-3.69,6.64-8.57,12.33-14.1,17.48c-5.54,5.16-11.67,9.45-18.65,12.46
		c-0.43,0.19-1.02,0.23-1.48,0.1c-3.58-0.97-7.17-1.87-10.89-2.15c-1.09-0.08-2.18-0.11-3.27-0.24c4.89-1.29,9.85-0.79,14.88-0.58
		c-2.52-1.64-4.72-3.56-6.13-6.32c0.23-0.18,0.46-0.39,0.71-0.57c3.75-2.79,7.64-5.4,11.22-8.39c5.99-5,11.15-10.75,14.6-17.86
		c1.64-3.38,2.65-6.93,2.79-10.7c0.01-0.41,0.02-0.81,0.02-1.22c0-0.14-0.04-0.28-0.06-0.46c-1.32-0.06-2.62-0.1-3.91-0.19
		c-6.7-0.5-11.96-3.56-15.87-8.99c-2.08-2.9-3.55-6.11-4.63-9.5c-0.21-0.67-0.51-0.9-1.2-0.93c-7.76-0.32-15.28,0.71-22.43,3.87
		c-3.23,1.43-6.05,3.43-8.38,6.34c-0.24-3.06,0.36-6.11-1.24-8.8c-1.83,3.06-3.55,6.14-5.47,9.09c-1.93,2.96-4.1,5.77-7.48,7.42
		c-0.52-0.9-0.98-1.72-1.47-2.54c-0.9-1.52-1.83-3.03-2.7-4.57c-0.7-1.25-1.82-1.84-3.24-2.27c-0.21,4.2-0.13,8.46-3.21,11.96
		c-1.32-1.24-1.94-2.64-2.16-4.12c-0.37-2.48-0.51-5-0.74-7.51c-0.04-0.39,0-0.79,0-1.41c-1.39,1.23-2.82,2.06-3.68,3.52
		c-1.09,1.85-2.17,3.7-3.26,5.55c-0.25,0.42-0.49,0.85-0.82,1.41c-0.67-0.41-1.4-0.69-1.91-1.19c-1.54-1.52-3.23-2.97-4.44-4.74
		c-2.14-3.12-3.98-6.46-5.94-9.71c-0.17-0.29-0.32-0.6-0.56-1.04c-1.72,2.84-1.06,5.86-1.29,8.74c-0.09,0-0.17,0.02-0.19,0
		c-3.36-4.08-7.84-6.37-12.78-7.85c-5.86-1.76-11.85-2.49-17.97-2.14c-0.61,0.03-0.89,0.23-1.08,0.83
		c-1.35,4.17-3.22,8.08-6.12,11.42c-4.17,4.81-9.52,7.05-15.8,7.26c-0.83,0.03-1.67,0-2.55,0c-0.16,2.9,0.28,5.6,1.1,8.24
		c1.54,4.96,4.24,9.26,7.5,13.24c5,6.12,11.01,11.12,17.42,15.67c0.92,0.65,1.78,1.39,2.84,2.22c-0.91,1.16-1.72,2.4-2.75,3.42
		c-1.03,1.03-2.29,1.84-3.67,2.93c5.2-0.31,10.19-0.82,15.09,0.49c-1.65,0.12-3.32,0.11-4.93,0.4c-3.1,0.56-6.16,1.32-9.25,1.95
		c-0.5,0.1-1.1,0.07-1.56-0.13c-8.26-3.6-15.3-8.93-21.57-15.33c-4.13-4.23-7.84-8.79-10.77-13.95c-0.55-0.96-0.99-1.99-1.56-3.15
		c4.1,2.42,7.99,4.73,11.89,7.03c0.08-0.09,0.17-0.19,0.25-0.28c-5.36-5.58-8.86-12.16-10.89-19.7c2.16,0,4.25,0,6.54,0
		c-2.86-2.5-3.59-5.77-4.43-9c2.24-0.16,4.42-0.24,6.57-0.5c6.2-0.75,11.94-2.67,16.68-6.93c4.03-3.62,6.47-8.13,7.41-13.45
		c0.1-0.57,0.38-0.83,0.87-1.05c8.01-3.68,16.13-3.59,24.29-0.59c2.17,0.8,4.27,1.81,6.4,2.72c0.29,0.12,0.58,0.24,0.99,0.2
		c-0.48-0.45-0.94-0.93-1.46-1.33c-2.32-1.83-4.93-3.15-7.63-4.3c-1.84-0.78-3.74-1.42-5.58-2.19c-0.39-0.16-0.79-0.56-0.96-0.95
		c-0.58-1.32-1.06-2.69-1.67-4.29c1.72,0.26,3.29,0.42,4.82,0.76c6.32,1.39,11.9,4.38,17.03,8.21c2.53,1.89,4.86,4.04,7.28,6.08
		c0.19,0.16,0.37,0.33,0.77,0.69c0-3.77,0-7.31,0-11.08c0.92,0.45,1.68,0.69,2.28,1.15c1.58,1.18,3.09,2.44,4.6,3.71
		c0.19,0.16,0.26,0.61,0.22,0.9c-0.7,4.87,0.12,9.59,1.36,14.27c0.02,0.08,0.07,0.15,0.14,0.28c0.04-0.12,0.08-0.19,0.09-0.25
		c0.19-4.78,0.37-9.56,0.56-14.34c0.03-0.69,0.04-1.41,0.2-2.07c0.19-0.77-0.09-1.24-0.62-1.74c-3.74-3.47-7.9-6.26-12.76-7.92
		c-0.45-0.15-0.93-0.24-1.57-0.4c1.09,3.44,2.35,6.69,2.07,10.51c-9.77-9.59-21.05-14.4-34.68-12.63c1.56,2.44,3.12,4.86,4.72,7.37
		c-1.48,0.34-2.8,0.6-4.1,0.96c-3.53,0.98-6.92,2.3-10.14,4.06c-0.51,0.28-0.81,0.58-0.92,1.23c-0.45,2.73-1.25,5.36-2.61,7.79
		c-2.86,5.14-7.39,7.93-13,9.21c-4.57,1.04-9.21,0.96-13.86,0.8c-2.43-0.08-2.01-0.24-1.99,1.89c0.02,3.03,0.99,5.8,2.52,8.39
		c0.29,0.49,0.59,0.98,0.95,1.58c-2.15-0.13-3.74-1.02-4.9-2.68c-1.27-1.82-1.76-3.91-1.95-6.06c-0.28-3.1-0.15-6.2,0.55-9.26
		c0.08-0.36,0.22-0.7,0.36-1.14c0.78,0.25,1.49,0.48,2.2,0.71c3.17,0.99,6.39,1.66,9.73,1.66c6.86,0,12.25-2.85,16.21-8.42
		c2.3-3.23,3.71-6.87,4.83-10.64c0.09-0.3,0.18-0.59,0.27-0.88c3.01,0.8,8.22,1.42,9.6,1.13c-1.47-3.72-4.03-7.04-4.12-11.25
		c0.73-0.13,1.51-0.28,2.44-0.45c-0.91-0.67-1.73-1.18-2.43-1.81c-0.75-0.67-1.18-1.56-1.31-2.67c2.65-0.37,4.49,1.57,6.9,2.26
		c-1.24-3.1-0.71-6.02,0.29-8.87c0.95,1.96,1.89,3.9,2.84,5.84c0.11-0.02,0.21-0.05,0.32-0.07c0.11-2.37-0.42-4.89,1.51-7.11
		c0.8,0.95,1.66,1.75,2.24,2.71c1.19,1.98,2.22,4.07,3.35,6.09c0.49,0.87,1.06,1.7,1.59,2.55c0.11,0,0.23,0,0.34,0
		c0.44-0.89,0.92-1.76,1.3-2.67c0.3-0.72,0.69-1.28,1.33-1.75c0.62-0.45,1.2-1.02,1.66-1.64c0.39-0.52,0.79-0.54,1.34-0.5
		c2.6,0.19,5.2,0.32,7.81,0.5c0.71,0.05,1.01-0.23,1.13-0.96c0.33-2.18,0.64-4.37,1.17-6.5c0.36-1.45,1.07-2.81,1.61-4.21
		c0.21-0.53,0.58-0.72,1.15-0.7c6.9,0.18,13.64,1.18,20.02,3.97c0.58,0.25,1.07,0.26,1.66,0.05c4.15-1.52,8.32-2.96,12.71-3.56
		c2.35-0.32,4.74-0.35,7.11-0.43c0.35-0.01,0.82,0.37,1.05,0.7c2.27,3.27,3.53,6.84,3.09,10.89c-0.01,0.08,0.02,0.17,0.05,0.37
		c0.29,0.02,0.59,0.06,0.9,0.05c3.05-0.04,6.09-0.3,9.05-1.09c0.57-0.15,0.82,0.03,1.11,0.49c1.1,1.71,2.24,3.39,3.37,5.07
		c0.18,0.26,0.41,0.48,0.69,0.81c0.03-0.24,0.05-0.37,0.07-0.5c0.5,0.68,0.99,1.34,1.56,2.12c1.45-4.39,3.77-8.04,6.24-11.72
		c1.06,0.99,1.33,2.2,1.41,3.44c0.08,1.2,0.02,2.41,0.2,3.7c0.53-0.94,1.11-1.86,1.59-2.82c0.48-0.98,0.86-2.01,1.29-3
		c1.22,1.52,1.46,5.8,0.43,8.77c2.36-0.61,4.21-2.62,6.92-2.25c-0.36,2.25-1.84,3.43-3.67,4.48c0.78,0.15,1.55,0.31,2.44,0.48
		c-0.2,1.04-0.57,2.07-0.58,3.12c-0.02,2.27-1.31,3.98-2.32,5.82c-0.4,0.73-0.82,1.44-1.24,2.18c3.5,0.4,6.83-0.1,10.17-1.14
		c0.21,0.7,0.38,1.28,0.54,1.85c1.12,3.87,2.61,7.56,5.04,10.82c3.6,4.83,8.41,7.29,14.45,7.41c4.21,0.08,8.21-0.93,12.21-2.04
		c0.05-0.02,0.11-0.02,0.4-0.06c0.32,1.37,0.78,2.74,0.95,4.14c0.41,3.34-0.06,6.58-1.34,9.71c-0.92,2.27-2.85,3.42-4.82,4.6
		c2.32-3.62,2.66-7.67,2.74-11.81c-2.04,0.1-3.94,0.23-5.85,0.28c-3.52,0.1-7.01-0.21-10.42-1.17c-7.58-2.14-12.14-7.23-14.32-14.65
		c-0.16-0.53-0.39-1.05-0.45-1.58c-0.18-1.51-1.15-2.26-2.43-2.87c-3.43-1.64-7.1-2.47-10.77-3.29
		C183.32,207.88,182.57,207.7,181.62,207.48z"/>
	<path class="st0" d="M154.85,283.43c1.59-1.93,2.35-4.1,3.38-6.36c0.27,0.85,0.51,1.52,0.7,2.21c0.19,0.7,0.36,1.4,0.5,2.12
		c0.4,2.03,0.61,4.07,0.34,6.14c-0.06,0.45-0.23,0.61-0.68,0.7c-2.67,0.54-5.33,1.12-7.99,1.7c-0.38,0.08-0.75,0.27-1.12,0.4
		c0,0.08,0,0.15,0,0.23c0.53,0.08,1.05,0.21,1.58,0.24c2.29,0.13,4.58,0.21,6.87,0.35c0.37,0.02,0.81,0.15,1.08,0.39
		c0.53,0.47,0.39,1.11-0.28,1.36c-0.34,0.13-0.74,0.17-1.11,0.17c-2.78-0.02-5.57-0.05-8.35-0.11c-0.6-0.01-1.08,0.01-1.36,0.64
		c-0.06,0.15-0.33,0.29-0.51,0.29c-3.31-0.02-6.61-0.06-9.92-0.1c-0.08,0-0.16-0.04-0.35-0.1c0.05-0.29,0.07-0.6,0.16-0.87
		c0.64-1.89,2.01-3.11,3.78-3.86c1.09-0.46,2.25-0.76,3.4-1.01c0.58-0.13,0.86-0.4,1-0.91c0.53-1.85,0.11-3.52-1.03-5
		c-1.78-2.32-4.2-3.49-7.07-3.8c-2.94-0.31-5.85-0.12-8.75,0.35c-3.45,0.55-6.64,4.31-6.36,7.46c0.14,1.6,0.66,2.21,2.22,2.57
		c0.73,0.17,1.48,0.28,2.2,0.51c2.27,0.73,3.59,2.38,4.48,4.67c-3.77,0-7.39,0-11.07,0c-0.19-0.78-0.77-0.88-1.57-0.85
		c-2.78,0.09-5.57,0.1-8.35,0.11c-1.05,0-1.69-0.42-1.57-0.97c0.18-0.85,0.83-0.96,1.6-0.98c2.26-0.07,4.52-0.19,6.78-0.32
		c0.48-0.03,0.95-0.16,1.45-0.44c-0.35-0.14-0.69-0.33-1.05-0.41c-2.63-0.58-5.26-1.18-7.9-1.69c-0.63-0.12-0.81-0.37-0.86-0.93
		c-0.26-2.79,0.15-5.49,0.9-8.17c0.18-0.66,0.41-1.31,0.66-2.11c1.02,2.26,1.81,4.44,3.38,6.39c0.27-1.48,0.47-2.78,0.74-4.07
		c1.11-5.29,2.92-10.31,6.57-14.39c2.11-2.37,4.59-4.41,6.94-6.57c0.65-0.6,1.22-0.49,1.78,0.18c1.2,1.42,2.39,2.84,3.59,4.26
		c0.65,0.76,0.73,0.74,1.37,0.01c1.33-1.5,2.67-2.98,4.04-4.45c0.57-0.61,1.11-0.6,1.74-0.03c0.11,0.1,0.19,0.22,0.3,0.32
		c1.35,1.27,2.65,2.58,4.05,3.8c3.83,3.35,6.27,7.59,7.74,12.38c0.78,2.54,1.2,5.18,1.79,7.78
		C154.73,282.84,154.77,283.03,154.85,283.43z"/>
	<path class="st0" d="M67.5,164.05c-0.4,2.42-0.93,4.74-1.16,7.08c-0.96,9.86,1.7,18.99,5.83,27.8c0.73,1.55,1.52,3.06,2.27,4.6
		c0.18,0.36,0.31,0.73,0.58,1.38c-1.11-0.08-2.04-0.16-2.96-0.2c-1.37-0.06-2.17-0.71-2.84-1.95c-3.06-5.68-5.76-11.5-7.34-17.78
		c-1.81-7.2-1.53-14.35,0.4-21.48c0.51-1.89,1.03-3.78,1.55-5.73c4.85,1.84,9.21,4.31,13.27,7.36c-3.46-3.38-7.2-6.43-11.08-9.31
		c0.03-0.08,0.05-0.15,0.08-0.23c1.91,0.46,3.85,0.83,5.74,1.4c8.04,2.41,14.8,6.95,20.84,12.66c3.36,3.18,6.37,6.67,9.04,10.48
		c-1.45,1.84-3.38,1.97-5.51,1.88c-2.48-0.11-3.21-2.18-4.44-3.55c0.1,1.11,0.25,2.27,0.31,3.43c0.05,1.18,0.01,2.36,0.01,3.54
		c-0.09,0.02-0.19,0.05-0.28,0.07c-0.23-0.31-0.47-0.62-0.7-0.93c-3.86-5.13-7.88-10.12-12.71-14.39c-2.92-2.58-6.1-4.71-9.87-5.85
		C68.29,164.24,68.01,164.18,67.5,164.05z"/>
	<path class="st0" d="M199.86,164.2c-3.56,0.94-6.57,2.68-9.32,4.91c-4.33,3.52-7.96,7.7-11.41,12.05
		c-1.17,1.47-2.29,2.97-3.51,4.57c0.21-2.52-0.54-4.96,0.41-7.41c-1.38,2.44-3.17,4.08-6.17,3.75c-1.82-0.2-2.9-0.68-3.93-2.02
		c9.11-12.14,20.04-21.63,35.78-24.45c-3.87,3.21-7.59,6.29-11.31,9.37c0.06,0.09,0.13,0.17,0.19,0.26c3.96-3.06,8.27-5.5,13-7.3
		c0.08,0.15,0.17,0.26,0.21,0.38c1.22,4.23,2.42,8.47,2.88,12.86c0.55,5.28-0.03,10.47-1.47,15.57c-1.72,6.09-4.43,11.75-7.56,17.22
		c-0.12,0.21-0.33,0.49-0.53,0.52c-1.45,0.23-2.9,0.41-4.35,0.6c-0.05-0.09-0.1-0.18-0.16-0.27c0.19-0.44,0.36-0.88,0.58-1.31
		c2.44-4.78,4.68-9.64,6.18-14.81c1.51-5.22,2.28-10.53,1.99-15.97C201.21,169.85,200.75,167.03,199.86,164.2z"/>
	<path class="st0" d="M134.91,358.02c-0.17-0.8-1.07-0.85-1.85-1.11c-4.31-1.43-6.61-4.64-7.61-8.85c-0.44-1.84-0.48-3.78-0.71-5.67
		c-0.04-0.36-0.09-0.75-0.26-1.06c-1.04-1.96-0.91-3.85,0.49-5.59c1.74-2.15,4.11-3.26,6.72-3.88c4.01-0.96,7.94-0.76,11.66,1.15
		c2.01,1.03,3.69,2.45,4.22,4.8c0.15,0.68,0.22,1.52-0.04,2.12c-0.67,1.53-0.6,3.16-0.86,4.74c-0.79,4.78-2.78,8.83-7.12,11.36
		c-0.84,0.49-1.8,0.77-2.7,1.16C136.22,357.45,135.6,357.72,134.91,358.02z"/>
	<path class="st0" d="M150.42,256.17c1.76-1.57,3.45-3.08,5.14-4.59c0.08,0.04,0.15,0.08,0.23,0.11c0.08,2.37,1.17,3.96,3.52,4.39
		c1.66,0.3,3.06-0.34,3.98-1.75c1.26-1.91,0.85-3.73-0.71-5.5c3.41-0.61,6.69-1.2,10.11-1.82
		C169.56,255.21,161,260.56,150.42,256.17z"/>
	<path class="st0" d="M95.63,247.01c3.47,0.63,6.73,1.21,10.13,1.83c-1.61,1.94-2.01,3.91-0.38,5.88c1.12,1.35,2.65,1.79,4.32,1.23
		c1.96-0.65,2.85-2.15,2.87-4.19c1.2,0.47,3.92,2.82,5.16,4.45C108.94,260.12,99.54,256.63,95.63,247.01z"/>
	<path class="st0" d="M137.58,280.36c1.85,0.14,3.52,0.77,4.79,2.23c0.57,0.65,0.96,1.41,0.62,2.31c-0.33,0.86-1.09,1.16-1.93,1.26
		c-1.96,0.24-3.66-0.4-5.12-1.67c-0.84-0.73-1.51-1.65-1.04-2.82C135.36,280.53,136.47,280.43,137.58,280.36z"/>
	<path class="st0" d="M84.77,293.62c1.96-0.33,3.91-0.71,5.88-0.99c4.31-0.61,8.65-0.86,13.01-0.72c0.93,0.03,1.86,0.06,2.77,0.22
		c0.37,0.06,0.87,0.42,0.96,0.74c0.16,0.6-0.41,0.74-0.89,0.77c-0.9,0.07-1.79,0.16-2.69,0.16c-6.12,0.01-12.25,0.01-18.37,0.01
		c-0.22,0-0.44-0.02-0.65-0.04C84.78,293.72,84.77,293.67,84.77,293.62z"/>
	<path class="st0" d="M183.67,293.74c-0.32,0.04-0.42,0.07-0.53,0.07c-6.82-0.02-13.63-0.03-20.45-0.05c-0.09,0-0.17-0.01-0.26-0.01
		c-0.48,0.01-0.89-0.11-0.92-0.68c-0.03-0.61,0.41-0.78,0.91-0.81c1.5-0.09,3.01-0.2,4.51-0.23c5.35-0.11,10.64,0.51,15.9,1.47
		C183.05,293.54,183.26,293.62,183.67,293.74z"/>
	<path class="st0" d="M160.44,254.6c-0.71,0.01-1.24-0.5-1.18-1.1c0.06-0.62,0.4-1.01,1.06-1.02c0.62-0.01,1.14,0.49,1.08,1.09
		C161.34,254.2,160.99,254.57,160.44,254.6z"/>
	<path class="st0" d="M110.28,253.63c-0.03,0.53-0.35,0.92-1,0.97c-0.62,0.05-1.12-0.42-1.13-1.04c-0.01-0.62,0.47-1.09,1.09-1.08
		C109.84,252.5,110.27,252.93,110.28,253.63z"/>
	<path class="st0" d="M136.42,330.62c-0.31-1.42,0.81-3.85,1.66-3.62C137.53,328.21,136.97,329.41,136.42,330.62z"/>
</g>
</svg>
